# xmcd CD database file
#
# Track frame offsets:
#	150
#	19542
#	37885
#	58062
#	78527
#	98585
#	116222
#	136662
#	157935
#	180855
#	199810
#
# Disc length: 3010 seconds
#
# Revision: 0
# Processed by: cddbd v1.5.1PL0 Copyright (c) Steve Scherf et al.
# Submitted via: CDex 1.51
#
DISCID=7d0bc00b
DTITLE=Blue People -  Blue
DYEAR=1995
DGENRE=New Age
TTITLE0=Live and Learn
TTITLE1=Merci Merci Me
TTITLE2=Say What You Mean
TTITLE3=Say A Prayer
TTITLE4=Another Heart Breakdown
TTITLE5=Listen Sister
TTITLE6=Couldn´t Live Another Day
TTITLE7=Not The House The Home
TTITLE8=Running Out Of Time
TTITLE9=Another Heart Breakdown (Total Breakdown Mix)
TTITLE10=Another Heart Breakdown (Total Breakdown Mix)
EXTD=YEAR: 1995
EXTT0=
EXTT1=
EXTT2=
EXTT3=
EXTT4=
EXTT5=
EXTT6=
EXTT7=
EXTT8=
EXTT9=
EXTT10=
PLAYORDER=
